<svg viewBox="0 0 360 500" xmlns="http://www.w3.org/2000/svg" font-family="Courier New, monospace">
  <rect x="0" y="0" width="360" height="500" fill="#FFFFFF"/>
  <text x="180" y="20" text-anchor="middle" fill="#48494D" font-size="13" font-weight="bold">ETAPA 8 — GOVERNANÇA + DEMO DAY</text>

  <!-- assistente RAG -->
  <rect x="15" y="32" width="330" height="74" rx="4" fill="#00ACF1"/>
  <text x="180" y="49" text-anchor="middle" fill="#FFFFFF" font-size="10" font-weight="bold">ASSISTENTE RAG (Claude)</text>
  <text x="25" y="65" fill="#FFFFFF" font-size="8">pergunta → recupera política (TF-IDF) → Claude explica</text>
  <text x="25" y="79" fill="#FFFFFF" font-size="8">guardrail entrada: bloqueia injeção e conselho financeiro</text>
  <text x="25" y="93" fill="#FFFFFF" font-size="8">guardrail saída: remove PII · sem chave = modo recuperação</text>

  <!-- governanca: 3 cards + lgpd -->
  <text x="180" y="124" text-anchor="middle" fill="#48494D" font-size="10" font-weight="bold">DOCUMENTOS DE GOVERNANÇA</text>
  <rect x="15" y="132" width="108" height="40" rx="4" fill="#EE008B"/>
  <text x="69" y="150" text-anchor="middle" fill="#FFFFFF" font-size="9" font-weight="bold">Model Card</text>
  <text x="69" y="163" text-anchor="middle" fill="#FFFFFF" font-size="7">métricas · vieses</text>
  <rect x="126" y="132" width="108" height="40" rx="4" fill="#EE008B"/>
  <text x="180" y="150" text-anchor="middle" fill="#FFFFFF" font-size="9" font-weight="bold">System Card</text>
  <text x="180" y="163" text-anchor="middle" fill="#FFFFFF" font-size="7">riscos · guardrails</text>
  <rect x="237" y="132" width="108" height="40" rx="4" fill="#EE008B"/>
  <text x="291" y="150" text-anchor="middle" fill="#FFFFFF" font-size="9" font-weight="bold">LGPD</text>
  <text x="291" y="163" text-anchor="middle" fill="#FFFFFF" font-size="7">PII · retenção</text>

  <!-- riscos -->
  <rect x="15" y="180" width="330" height="48" rx="4" fill="#FFF300"/>
  <text x="180" y="196" text-anchor="middle" fill="#48494D" font-size="9" font-weight="bold">RISCOS MAPEADOS</text>
  <text x="25" y="210" fill="#48494D" font-size="8">reward hacking · manipulação de contexto</text>
  <text x="25" y="222" fill="#48494D" font-size="8">abuso do assistente · violação de suitability</text>

  <!-- entregaveis -->
  <rect x="15" y="236" width="160" height="36" rx="4" fill="#48494D"/>
  <text x="95" y="252" text-anchor="middle" fill="#FFFFFF" font-size="9" font-weight="bold">Relatório técnico</text>
  <text x="95" y="265" text-anchor="middle" fill="#FFF300" font-size="7">~10 páginas</text>
  <rect x="185" y="236" width="160" height="36" rx="4" fill="#48494D"/>
  <text x="265" y="252" text-anchor="middle" fill="#FFFFFF" font-size="9" font-weight="bold">Pitch Demo Day</text>
  <text x="265" y="265" text-anchor="middle" fill="#FFF300" font-size="7">roteiro 10 slides</text>

  <!-- fechamento: projeto completo -->
  <line x1="15" y1="286" x2="345" y2="286" stroke="#48494D" stroke-width="1" stroke-dasharray="3,3"/>
  <text x="180" y="302" text-anchor="middle" fill="#48494D" font-size="10" font-weight="bold">PROJETO COMPLETO — 8 ETAPAS</text>

  <g font-size="8" fill="#48494D">
    <text x="25" y="318">0 · estrutura, CI, pyproject</text>
    <text x="25" y="332">1 · base Kaggle + EDA (sem vazamento)</text>
    <text x="25" y="346">2 · enriquecimento sintético + golden set</text>
    <text x="25" y="360">3 · baselines + Thompson + UCB1 + MLflow</text>
    <text x="25" y="374">4 · avaliação offline + fairness + sensibilidade</text>
    <text x="25" y="388">5 · API + log auditável + pipeline</text>
    <text x="25" y="402">6 · arquitetura-alvo Azure</text>
    <text x="25" y="416">7 · champion-challenger + aprovação + rollback</text>
    <text x="25" y="430">8 · governança + assistente + relatório + pitch</text>
  </g>

  <line x1="15" y1="442" x2="345" y2="442" stroke="#48494D" stroke-width="1" stroke-dasharray="3,3"/>
  <text x="180" y="458" text-anchor="middle" fill="#48494D" font-size="9" font-weight="bold">41 testes · ruff limpo · tudo reproduzível</text>
  <text x="180" y="474" text-anchor="middle" fill="#48494D" font-size="8">make pipeline · make retrain · make serve · make assistant</text>
  <text x="180" y="489" text-anchor="middle" fill="#EE008B" font-size="9" font-weight="bold">pronto para o Demo Day · entrega 24/jul</text>
</svg>
